<svg width="112" height="72" viewBox="0 0 112 72" fill="none" xmlns="http://www.w3.org/2000/svg">
<path d="M54.9747 30.6739C54.6523 33.005 56.3404 33.457 56.3404 33.457C58.9047 32.5825 58.6577 29.8417 58.209 28.8776C57.7592 27.9149 57.5006 26.7426 57.5006 26.7426C56.6421 28.1161 55.2981 28.3435 54.9747 30.6739Z" fill="#2950B5"/>
<path d="M48.0951 32.207C46.9731 32.7908 45.5875 33.157 45.5875 33.157C47.2661 34.111 47.6067 35.7034 50.3986 35.9683C53.1939 36.2328 53.6467 34.1975 53.6467 34.1975C52.4725 31.1887 49.2195 31.6221 48.0951 32.207Z" fill="#2950B5"/>
<path d="M57.0345 44.5268C57.0345 44.5268 56.1626 45.8713 57.8112 47.2595C59.4548 48.6501 60.5112 47.9785 61.9392 48.3866C61.9392 48.3866 61.394 47.4297 61.1125 46.5017C60.8265 45.5695 59.3158 43.5533 57.0345 44.5268Z" fill="#2950B5"/>
<path d="M65.389 43.296C64.7021 42.4615 62.2965 41.033 60.3679 42.9996C60.3679 42.9996 60.3613 43.0637 60.3565 43.15C57.3745 43.0279 55.1376 43.7376 53.5045 44.7118C56.314 40.3018 59.1876 36.3386 61.6151 33.167L63.107 33.4508L62.475 32.0469C63.8483 30.2765 65.0394 28.8031 65.9372 27.6966C66.6966 27.9156 67.5734 27.6445 68.1246 26.944L68.1373 26.9279C68.8216 27.1155 69.6485 27.2068 70.6627 27.1246C75.2525 26.7537 76.7252 20.8861 78.0996 19.1397C79.4762 17.3904 80.6376 17.7804 80.6376 17.7804C80.6376 17.7804 79.6842 16.5815 77.5565 16.3614C77.5645 17.6752 77.1124 19.0838 76.0168 20.5326C78.8075 15.4074 75.0979 11.66 71.1201 10.2903C71.1201 10.2903 71.7726 11.3278 70.396 13.077C69.0216 14.8234 63.6637 17.6342 64.3829 22.1825C64.5343 23.1458 64.8023 23.9023 65.1258 24.5102L65.0896 24.5562C64.5293 25.2681 64.4814 26.1992 64.8917 26.8884C63.4494 28.6606 61.2696 31.3707 58.791 34.7167L57.2772 34.4704L57.9489 35.8639C57.3353 36.7062 56.7086 37.5827 56.0712 38.4924C56.1737 36.0975 55.4929 32.5282 51.6384 29.1585C51.5079 26.6403 48.9617 25.9723 47.9256 26.0627C46.8499 26.1573 45.6386 25.9951 45.6386 25.9951C46.6511 27.2959 46.4019 28.6588 48.5162 29.7788C50.1109 30.6205 51.0822 30.0013 51.4639 29.6453C55.8522 34.0253 55.3995 38.3485 54.9489 40.117C54.3485 40.9982 53.7432 41.9062 53.1395 42.8347L51.7235 42.7545L52.4431 43.9141C50.8264 46.4456 49.232 49.1247 47.7546 51.8889L46.737 51.8306L47.3038 52.7492C45.4042 56.3832 43.7188 60.151 42.4674 63.9088L43.723 64.3267C44.3727 62.3786 45.1398 60.4251 45.9944 58.4905L47.3609 58.2824L46.4979 57.3793C47.7153 54.7344 49.0816 52.129 50.5271 49.6175L51.9308 49.6126L51.162 48.5282C51.4969 47.9599 51.8342 47.3973 52.1743 46.84C53.6538 45.3395 56.2309 43.6978 60.3943 43.6299C60.5098 44.2048 60.9247 45.03 62.3206 45.4768C64.601 46.201 65.4008 45.0674 67.0382 44.8809C67.0399 44.8807 66.0748 44.1289 65.389 43.296Z" fill="#2950B5"/>
<path d="M1.34325 36L13.3803 1H98.6198L110.657 36L98.6198 71H13.3803L1.34325 36Z" stroke="#2950B5" stroke-width="2"/>
</svg>
