<?xml version="1.0" encoding="utf-8"?>
<!-- Generator: Adobe Illustrator 25.0.1, SVG Export Plug-In . SVG Version: 6.00 Build 0)  -->
<svg version="1.1" id="Слой_1" xmlns="http://www.w3.org/2000/svg" xmlns:xlink="http://www.w3.org/1999/xlink" x="0px" y="0px"
	 viewBox="0 0 113.4 365.2" style="enable-background:new 0 0 113.4 365.2;" xml:space="preserve">
<style type="text/css">
	.st0{fill:#2950B5;}
</style>
<path class="st0" d="M68.9,13.3C79,5.5,96.2,3.1,113.4,3.1V0c-19.3,0-33.6,3.3-43,10s-15,16.6-16.8,29.9c-1.8,13.3-0.8,30.6,3.1,52
	c4.4,24,4.2,42.6-0.6,55.9c-4.8,13.3-12.1,22.3-21.9,27c-9.8,4.7-21.2,7-34.2,7v1.6c13,0,24.4,2.4,34.2,7c9.8,4.7,17.1,13.7,21.9,27
	c4.8,13.3,5,31.9,0.6,55.9c-3.9,21.4-5,38.7-3.1,52s7.4,23.3,16.8,29.9s23.7,10,43,10v-3.1c-17.2,0-34.3-2.4-44.4-10.2
	c-8-6.2-12.5-15.6-13.5-28c-1-12.4,1.4-29.3,5.3-50.6c4.4-23.2,4.6-41.6,0.4-55.1c-4.2-13.6-12.1-23.1-21.7-28.5
	c-9.5-5.4-22-6.5-35.1-7.1c13-0.5,25.6-1.7,35.1-7.1c9.6-5.5,17.5-15,21.7-28.5c4.2-13.6,4-31.9-0.4-55.1
	c-3.9-21.4-6.3-38.2-5.3-50.6C56.5,28.9,60.9,19.5,68.9,13.3z"/>
</svg>
